<?xml version="1.0" encoding="UTF-8" standalone="no"?>
<svg
   viewBox="0 0 64.395905 68.7873"
   xmlns="http://www.w3.org/2000/svg"><g
     transform="translate(-54.239583,-14.291864)"><g
       transform="translate(38.36458,13.493752)"><path
         id="path1-1-5"
         d="M 42.333335,56.885416 V 46.302083 l -7.9375,-2.645834 v 10.583334"
         stroke="none"
         fill="#53d3fb"
         fill-rule="evenodd"
         style="stroke-width:0.264583" /><path
         id="path1354-4-3"
         d="m 50.270837,43.656249 -7.937504,2.645834 v 10.583333 l 7.9375,-2.645833 V 43.656249 Z"
         stroke="none"
         fill="#1474a4"
         fill-rule="evenodd"
         style="stroke-width:0.264583" /><path
         d="M 41.771949,43.103727"
         style="fill:#078dcc;fill-rule:evenodd;stroke:none;stroke-width:0.264583"
         id="path1614-12-2" /><path
         d="m 42.333335,41.010416 -7.9375,2.645833 7.9375,2.645834 7.9375,-2.645834"
         style="fill:#078dcc;fill-rule:evenodd;stroke:none;stroke-width:0.264583"
         id="path1614-1-20-1" /></g><g
       transform="translate(47.624998,16.668751)"><path
         id="path1-1-5-6"
         d="M 42.333335,56.885416 V 46.302083 l -7.9375,-2.645834 v 10.583334"
         stroke="none"
         fill="#53d3fb"
         fill-rule="evenodd"
         style="stroke-width:0.264583" /><path
         id="path1354-4-3-8"
         d="m 50.270837,43.656249 -7.937504,2.645834 v 10.583333 l 7.9375,-2.645833 V 43.656249 Z"
         stroke="none"
         fill="#1474a4"
         fill-rule="evenodd"
         style="fill:#005782;fill-opacity:1;stroke-width:0.264583" /><path
         d="M 41.771949,43.103727"
         style="fill:#078dcc;fill-rule:evenodd;stroke:none;stroke-width:0.264583"
         id="path1614-12-2-9" /><path
         d="m 42.333335,41.010416 -7.9375,2.645833 7.9375,2.645834 7.9375,-2.645834"
         style="fill:#078dcc;fill-rule:evenodd;stroke:none;stroke-width:0.264583"
         id="path1614-1-20-1-6" /></g><g
       transform="translate(56.885414,19.843751)"><path
         id="path1-1-5-6-4"
         d="M 42.333335,56.885416 V 46.302083 l -7.9375,-2.645834 v 10.583334"
         stroke="none"
         fill="#53d3fb"
         fill-rule="evenodd"
         style="stroke-width:0.264583" /><path
         id="path1354-4-3-8-0"
         d="m 50.270837,43.656249 -7.937504,2.645834 v 10.583333 l 7.9375,-2.645833 V 43.656249 Z"
         stroke="none"
         fill="#1474a4"
         fill-rule="evenodd"
         style="fill:#005782;fill-opacity:1;stroke-width:0.264583" /><path
         d="M 41.771949,43.103727"
         style="fill:#078dcc;fill-rule:evenodd;stroke:none;stroke-width:0.264583"
         id="path1614-12-2-9-3" /><path
         d="m 42.333335,41.010416 -7.9375,2.645833 7.9375,2.645834 7.9375,-2.645834"
         style="fill:#078dcc;fill-rule:evenodd;stroke:none;stroke-width:0.264583"
         id="path1614-1-20-1-6-6" /></g><g
       transform="translate(29.104164,16.668751)"><path
         id="path1-1-5-2"
         d="M 42.333335,56.885416 V 46.302083 l -7.9375,-2.645834 v 10.583334"
         stroke="none"
         fill="#53d3fb"
         fill-rule="evenodd"
         style="stroke-width:0.264583" /><path
         id="path1354-4-3-82"
         d="m 50.270837,43.656249 -7.937504,2.645834 v 10.583333 l 7.9375,-2.645833 V 43.656249 Z"
         stroke="none"
         fill="#1474a4"
         fill-rule="evenodd"
         style="fill:#005782;fill-opacity:1;stroke-width:0.264583" /><path
         d="M 41.771949,43.103727"
         style="fill:#078dcc;fill-rule:evenodd;stroke:none;stroke-width:0.264583"
         id="path1614-12-2-4" /><path
         d="m 42.333335,41.010416 -7.9375,2.645833 7.9375,2.645834 7.9375,-2.645834"
         style="fill:#078dcc;fill-rule:evenodd;stroke:none;stroke-width:0.264583"
         id="path1614-1-20-1-2" /></g><g
       transform="translate(38.364581,19.843751)"><path
         id="path1-1-5-6-6"
         d="M 42.333335,56.885416 V 46.302083 l -7.9375,-2.645834 v 10.583334"
         stroke="none"
         fill="#53d3fb"
         fill-rule="evenodd"
         style="stroke-width:0.264583" /><path
         id="path1354-4-3-8-2"
         d="m 50.270837,43.656249 -7.937504,2.645834 v 10.583333 l 7.9375,-2.645833 V 43.656249 Z"
         stroke="none"
         fill="#1474a4"
         fill-rule="evenodd"
         style="fill:#005782;fill-opacity:1;stroke-width:0.264583" /><path
         d="M 41.771949,43.103727"
         style="fill:#078dcc;fill-rule:evenodd;stroke:none;stroke-width:0.264583"
         id="path1614-12-2-9-5" /><path
         d="m 42.333335,41.010416 -7.9375,2.645833 7.9375,2.645834 7.9375,-2.645834"
         style="fill:#078dcc;fill-rule:evenodd;stroke:none;stroke-width:0.264583"
         id="path1614-1-20-1-6-4" /></g><g
       transform="translate(47.624998,23.018751)"><path
         id="path1-1-5-6-4-4"
         d="M 42.333335,56.885416 V 46.302083 l -7.9375,-2.645834 v 10.583334"
         stroke="none"
         fill="#53d3fb"
         fill-rule="evenodd"
         style="stroke-width:0.264583" /><path
         id="path1354-4-3-8-0-8"
         d="m 50.270837,43.656249 -7.937504,2.645834 v 10.583333 l 7.9375,-2.645833 V 43.656249 Z"
         stroke="none"
         fill="#1474a4"
         fill-rule="evenodd"
         style="fill:#005782;fill-opacity:1;stroke-width:0.264583" /><path
         d="M 41.771949,43.103727"
         style="fill:#078dcc;fill-rule:evenodd;stroke:none;stroke-width:0.264583"
         id="path1614-12-2-9-3-0" /><path
         d="m 42.333335,41.010416 -7.9375,2.645833 7.9375,2.645834 7.9375,-2.645834"
         style="fill:#078dcc;fill-rule:evenodd;stroke:none;stroke-width:0.264583"
         id="path1614-1-20-1-6-6-7" /></g><g
       transform="translate(19.843748,19.843751)"><path
         id="path1-1-5-2-0"
         d="M 42.333335,56.885416 V 46.302083 l -7.9375,-2.645834 v 10.583334"
         stroke="none"
         fill="#53d3fb"
         fill-rule="evenodd"
         style="stroke-width:0.264583" /><path
         id="path1354-4-3-82-4"
         d="m 50.270837,43.656249 -7.937504,2.645834 v 10.583333 l 7.9375,-2.645833 V 43.656249 Z"
         stroke="none"
         fill="#1474a4"
         fill-rule="evenodd"
         style="fill:#005782;fill-opacity:1;stroke-width:0.264583" /><path
         d="M 41.771949,43.103727"
         style="fill:#078dcc;fill-rule:evenodd;stroke:none;stroke-width:0.264583"
         id="path1614-12-2-4-7" /><path
         d="m 42.333335,41.010416 -7.9375,2.645833 7.9375,2.645834 7.9375,-2.645834"
         style="fill:#078dcc;fill-rule:evenodd;stroke:none;stroke-width:0.264583"
         id="path1614-1-20-1-2-9" /></g><g
       transform="translate(29.104164,23.01875)"><path
         id="path1-1-5-6-6-0"
         d="M 42.333335,56.885416 V 46.302083 l -7.9375,-2.645834 v 10.583334"
         stroke="none"
         fill="#53d3fb"
         fill-rule="evenodd"
         style="stroke-width:0.264583" /><path
         id="path1354-4-3-8-2-4"
         d="m 50.270837,43.656249 -7.937504,2.645834 v 10.583333 l 7.9375,-2.645833 V 43.656249 Z"
         stroke="none"
         fill="#1474a4"
         fill-rule="evenodd"
         style="fill:#005782;fill-opacity:1;stroke-width:0.264583" /><path
         d="M 41.771949,43.103727"
         style="fill:#078dcc;fill-rule:evenodd;stroke:none;stroke-width:0.264583"
         id="path1614-12-2-9-5-6" /><path
         d="m 42.333335,41.010416 -7.9375,2.645833 7.9375,2.645834 7.9375,-2.645834"
         style="fill:#078dcc;fill-rule:evenodd;stroke:none;stroke-width:0.264583"
         id="path1614-1-20-1-6-4-0" /></g><g
       transform="translate(38.36458,26.193751)"><path
         id="path1-1-5-6-4-4-3"
         d="M 42.333335,56.885416 V 46.302083 l -7.9375,-2.645834 v 10.583334"
         stroke="none"
         fill="#53d3fb"
         fill-rule="evenodd"
         style="stroke-width:0.264583" /><path
         id="path1354-4-3-8-0-8-7"
         d="m 50.270837,43.656249 -7.937504,2.645834 v 10.583333 l 7.9375,-2.645833 V 43.656249 Z"
         stroke="none"
         fill="#1474a4"
         fill-rule="evenodd"
         style="fill:#005782;fill-opacity:1;stroke-width:0.264583" /><path
         d="M 41.771949,43.103727"
         style="fill:#078dcc;fill-rule:evenodd;stroke:none;stroke-width:0.264583"
         id="path1614-12-2-9-3-0-3" /><path
         d="m 42.333335,41.010416 -7.9375,2.645833 7.9375,2.645834 7.9375,-2.645834"
         style="fill:#078dcc;fill-rule:evenodd;stroke:none;stroke-width:0.264583"
         id="path1614-1-20-1-6-6-7-5" /></g><g
       transform="translate(38.36458,1.587501)"><path
         id="path1-1-5-5"
         d="M 42.333335,56.885416 V 46.302083 l -7.9375,-2.645834 v 10.583334"
         stroke="none"
         fill="#53d3fb"
         fill-rule="evenodd"
         style="stroke-width:0.264583" /><path
         id="path1354-4-3-2"
         d="m 50.270837,43.656249 -7.937504,2.645834 v 10.583333 l 7.9375,-2.645833 V 43.656249 Z"
         stroke="none"
         fill="#1474a4"
         fill-rule="evenodd"
         style="fill:#005782;fill-opacity:1;stroke-width:0.264583" /><path
         d="M 41.771949,43.103727"
         style="fill:#078dcc;fill-rule:evenodd;stroke:none;stroke-width:0.264583"
         id="path1614-12-2-5" /><path
         d="m 42.333335,41.010416 -7.9375,2.645833 7.9375,2.645834 7.9375,-2.645834"
         style="fill:#078dcc;fill-rule:evenodd;stroke:none;stroke-width:0.264583"
         id="path1614-1-20-1-26" /></g><g
       transform="translate(47.624998,4.762501)"><path
         id="path1-1-5-6-62"
         d="M 42.333335,56.885416 V 46.302083 l -7.9375,-2.645834 v 10.583334"
         stroke="none"
         fill="#53d3fb"
         fill-rule="evenodd"
         style="stroke-width:0.264583" /><path
         id="path1354-4-3-8-8"
         d="m 50.270837,43.656249 -7.937504,2.645834 v 10.583333 l 7.9375,-2.645833 V 43.656249 Z"
         stroke="none"
         fill="#1474a4"
         fill-rule="evenodd"
         style="fill:#005782;fill-opacity:1;stroke-width:0.264583" /><path
         d="M 41.771949,43.103727"
         style="fill:#078dcc;fill-rule:evenodd;stroke:none;stroke-width:0.264583"
         id="path1614-12-2-9-7" /><path
         d="m 42.333335,41.010416 -7.9375,2.645833 7.9375,2.645834 7.9375,-2.645834"
         style="fill:#078dcc;fill-rule:evenodd;stroke:none;stroke-width:0.264583"
         id="path1614-1-20-1-6-7" /></g><g
       transform="translate(56.885414,7.9375007)"><path
         id="path1-1-5-6-4-3"
         d="M 42.333335,56.885416 V 46.302083 l -7.9375,-2.645834 v 10.583334"
         stroke="none"
         fill="#53d3fb"
         fill-rule="evenodd"
         style="stroke-width:0.264583" /><path
         id="path1354-4-3-8-0-9"
         d="m 50.270837,43.656249 -7.937504,2.645834 v 10.583333 l 7.9375,-2.645833 V 43.656249 Z"
         stroke="none"
         fill="#1474a4"
         fill-rule="evenodd"
         style="fill:#005782;fill-opacity:1;stroke-width:0.264583" /><path
         d="M 41.771949,43.103727"
         style="fill:#078dcc;fill-rule:evenodd;stroke:none;stroke-width:0.264583"
         id="path1614-12-2-9-3-3" /><path
         d="m 42.333335,41.010416 -7.9375,2.645833 7.9375,2.645834 7.9375,-2.645834"
         style="fill:#078dcc;fill-rule:evenodd;stroke:none;stroke-width:0.264583"
         id="path1614-1-20-1-6-6-1" /></g><g
       transform="translate(29.104164,4.762501)"><path
         id="path1-1-5-2-1"
         d="M 42.333335,56.885416 V 46.302083 l -7.9375,-2.645834 v 10.583334"
         stroke="none"
         fill="#53d3fb"
         fill-rule="evenodd"
         style="stroke-width:0.264583" /><path
         id="path1354-4-3-82-7"
         d="m 50.270837,43.656249 -7.937504,2.645834 v 10.583333 l 7.9375,-2.645833 V 43.656249 Z"
         stroke="none"
         fill="#1474a4"
         fill-rule="evenodd"
         style="fill:#005782;fill-opacity:1;stroke-width:0.264583" /><path
         d="M 41.771949,43.103727"
         style="fill:#078dcc;fill-rule:evenodd;stroke:none;stroke-width:0.264583"
         id="path1614-12-2-4-3" /><path
         d="m 42.333335,41.010416 -7.9375,2.645833 7.9375,2.645834 7.9375,-2.645834"
         style="fill:#078dcc;fill-rule:evenodd;stroke:none;stroke-width:0.264583"
         id="path1614-1-20-1-2-1" /></g><g
       transform="translate(38.364581,7.9375007)"><path
         id="path1-1-5-6-6-00"
         d="M 42.333335,56.885416 V 46.302083 l -7.9375,-2.645834 v 10.583334"
         stroke="none"
         fill="#53d3fb"
         fill-rule="evenodd"
         style="stroke-width:0.264583" /><path
         id="path1354-4-3-8-2-5"
         d="m 50.270837,43.656249 -7.937504,2.645834 v 10.583333 l 7.9375,-2.645833 V 43.656249 Z"
         stroke="none"
         fill="#1474a4"
         fill-rule="evenodd"
         style="fill:#005782;fill-opacity:1;stroke-width:0.264583" /><path
         d="M 41.771949,43.103727"
         style="fill:#078dcc;fill-rule:evenodd;stroke:none;stroke-width:0.264583"
         id="path1614-12-2-9-5-5" /><path
         d="m 42.333335,41.010416 -7.9375,2.645833 7.9375,2.645834 7.9375,-2.645834"
         style="fill:#078dcc;fill-rule:evenodd;stroke:none;stroke-width:0.264583"
         id="path1614-1-20-1-6-4-7" /></g><g
       transform="translate(19.843748,7.9374997)"><path
         id="path1-1-5-2-0-7"
         d="M 42.333335,56.885416 V 46.302083 l -7.9375,-2.645834 v 10.583334"
         stroke="none"
         fill="#53d3fb"
         fill-rule="evenodd"
         style="stroke-width:0.264583" /><path
         id="path1354-4-3-82-4-0"
         d="m 50.270837,43.656249 -7.937504,2.645834 v 10.583333 l 7.9375,-2.645833 V 43.656249 Z"
         stroke="none"
         fill="#1474a4"
         fill-rule="evenodd"
         style="fill:#005782;fill-opacity:1;stroke-width:0.264583" /><path
         d="M 41.771949,43.103727"
         style="fill:#078dcc;fill-rule:evenodd;stroke:none;stroke-width:0.264583"
         id="path1614-12-2-4-7-9" /><path
         d="m 42.333335,41.010416 -7.9375,2.645833 7.9375,2.645834 7.9375,-2.645834"
         style="fill:#078dcc;fill-rule:evenodd;stroke:none;stroke-width:0.264583"
         id="path1614-1-20-1-2-9-1" /></g><g
       transform="translate(38.36458,-10.318749)"><path
         id="path1-1-5-5-4"
         d="M 42.333335,56.885416 V 46.302083 l -7.9375,-2.645834 v 10.583334"
         stroke="none"
         fill="#53d3fb"
         fill-rule="evenodd"
         style="stroke-width:0.264583" /><path
         id="path1354-4-3-2-4"
         d="m 50.270837,43.656249 -7.937504,2.645834 v 10.583333 l 7.9375,-2.645833 V 43.656249 Z"
         stroke="none"
         fill="#1474a4"
         fill-rule="evenodd"
         style="fill:#005782;fill-opacity:1;stroke-width:0.264583" /><path
         d="M 41.771949,43.103727"
         style="fill:#078dcc;fill-rule:evenodd;stroke:none;stroke-width:0.264583"
         id="path1614-12-2-5-2" /><path
         d="m 42.333335,41.010416 -7.9375,2.645833 7.9375,2.645834 7.9375,-2.645834"
         style="fill:#078dcc;fill-rule:evenodd;stroke:none;stroke-width:0.264583"
         id="path1614-1-20-1-26-4" /></g><g
       transform="translate(47.624998,-7.14375)"><path
         id="path1-1-5-6-62-6"
         d="M 42.333335,56.885416 V 46.302083 l -7.9375,-2.645834 v 10.583334"
         stroke="none"
         fill="#53d3fb"
         fill-rule="evenodd"
         style="stroke-width:0.264583" /><path
         id="path1354-4-3-8-8-5"
         d="m 50.270837,43.656249 -7.937504,2.645834 v 10.583333 l 7.9375,-2.645833 V 43.656249 Z"
         stroke="none"
         fill="#1474a4"
         fill-rule="evenodd"
         style="fill:#005782;fill-opacity:1;stroke-width:0.264583" /><path
         d="M 41.771949,43.103727"
         style="fill:#078dcc;fill-rule:evenodd;stroke:none;stroke-width:0.264583"
         id="path1614-12-2-9-7-1" /><path
         d="m 42.333335,41.010416 -7.9375,2.645833 7.9375,2.645834 7.9375,-2.645834"
         style="fill:#078dcc;fill-rule:evenodd;stroke:none;stroke-width:0.264583"
         id="path1614-1-20-1-6-7-6" /></g><g
       transform="rotate(19.792232,98.155267,237.20014)"><path
         id="path1-1-5-6-62-6-2"
         d="M 42.333335,56.885416 V 46.302083 l -7.9375,-2.645834 v 10.583334"
         stroke="none"
         fill="#53d3fb"
         fill-rule="evenodd"
         style="stroke-width:0.264583" /><path
         id="path1354-4-3-8-8-5-4"
         d="m 50.270837,43.656249 -7.937504,2.645834 v 10.583333 l 7.9375,-2.645833 V 43.656249 Z"
         stroke="none"
         fill="#1474a4"
         fill-rule="evenodd"
         style="fill:#005782;fill-opacity:1;stroke-width:0.264583" /><path
         d="M 41.771949,43.103727"
         style="fill:#078dcc;fill-rule:evenodd;stroke:none;stroke-width:0.264583"
         id="path1614-12-2-9-7-1-5" /><path
         d="m 42.333335,41.010416 -7.9375,2.645833 7.9375,2.645834 7.9375,-2.645834"
         style="fill:#078dcc;fill-rule:evenodd;stroke:none;stroke-width:0.264583"
         id="path1614-1-20-1-6-7-6-6" /></g><g
       transform="rotate(36.817421,105.89097,111.2433)"><path
         id="path1-1-5-6-62-6-2-3"
         d="M 42.333335,56.885416 V 46.302083 l -7.9375,-2.645834 v 10.583334"
         stroke="none"
         fill="#53d3fb"
         fill-rule="evenodd"
         style="stroke-width:0.264583" /><path
         id="path1354-4-3-8-8-5-4-8"
         d="m 50.270837,43.656249 -7.937504,2.645834 v 10.583333 l 7.9375,-2.645833 V 43.656249 Z"
         stroke="none"
         fill="#1474a4"
         fill-rule="evenodd"
         style="fill:#005782;fill-opacity:1;stroke-width:0.264583" /><path
         d="M 41.771949,43.103727"
         style="fill:#078dcc;fill-rule:evenodd;stroke:none;stroke-width:0.264583"
         id="path1614-12-2-9-7-1-5-2" /><path
         d="m 42.333335,41.010416 -7.9375,2.645833 7.9375,2.645834 7.9375,-2.645834"
         style="fill:#078dcc;fill-rule:evenodd;stroke:none;stroke-width:0.264583"
         id="path1614-1-20-1-6-7-6-6-9" /></g><g
       transform="translate(29.104164,-7.14375)"><path
         id="path1-1-5-2-1-8"
         d="M 42.333335,56.885416 V 46.302083 l -7.9375,-2.645834 v 10.583334"
         stroke="none"
         fill="#53d3fb"
         fill-rule="evenodd"
         style="stroke-width:0.264583" /><path
         id="path1354-4-3-82-7-1"
         d="m 50.270837,43.656249 -7.937504,2.645834 v 10.583333 l 7.9375,-2.645833 V 43.656249 Z"
         stroke="none"
         fill="#1474a4"
         fill-rule="evenodd"
         style="fill:#005782;fill-opacity:1;stroke-width:0.264583" /><path
         d="M 41.771949,43.103727"
         style="fill:#078dcc;fill-rule:evenodd;stroke:none;stroke-width:0.264583"
         id="path1614-12-2-4-3-9" /><path
         d="m 42.333335,41.010416 -7.9375,2.645833 7.9375,2.645834 7.9375,-2.645834"
         style="fill:#078dcc;fill-rule:evenodd;stroke:none;stroke-width:0.264583"
         id="path1614-1-20-1-2-1-4" /></g><g
       transform="translate(19.843748,-3.9687509)"><path
         id="path1-1-5-2-0-7-7"
         d="M 42.333335,56.885416 V 46.302083 l -7.9375,-2.645834 v 10.583334"
         stroke="none"
         fill="#53d3fb"
         fill-rule="evenodd"
         style="stroke-width:0.264583" /><path
         id="path1354-4-3-82-4-0-9"
         d="m 50.270837,43.656249 -7.937504,2.645834 v 10.583333 l 7.9375,-2.645833 V 43.656249 Z"
         stroke="none"
         fill="#1474a4"
         fill-rule="evenodd"
         style="fill:#005782;fill-opacity:1;stroke-width:0.264583" /><path
         d="M 41.771949,43.103727"
         style="fill:#078dcc;fill-rule:evenodd;stroke:none;stroke-width:0.264583"
         id="path1614-12-2-4-7-9-0" /><path
         d="m 42.333335,41.010416 -7.9375,2.645833 7.9375,2.645834 7.9375,-2.645834"
         style="fill:#078dcc;fill-rule:evenodd;stroke:none;stroke-width:0.264583"
         id="path1614-1-20-1-2-9-1-6" /></g></g></svg>
